<?xml version="1.0" encoding="UTF-8" standalone="no"?>
<svg
   xmlns="http://www.w3.org/2000/svg"
   id="svg843"
   viewBox="0 0 1000 1000"
   y="0px"
   x="0px"
   version="1.1"><defs
   id="defs847" />
<g
   style="fill:#ffffff;fill-opacity:0.86000001"
   id="g841"><g
     style="fill:#ffffff;fill-opacity:0.86000001"
     id="g839"
     transform="translate(0.000000,511.000000) scale(0.100000,-0.100000)"><path
       style="fill:#ffffff;fill-opacity:0.86000001"
       id="path835"
       d="M5419.9,4724c-441.5-81.5-849.1-310.2-1201.1-676.1c-423.6-441.5-705.9-988.3-847.1-1640.6c-27.8-137.2-57.7-264.5-61.7-282.4c-9.9-31.8-49.7-35.8-455.4-35.8h-445.4l-19.9-73.6c-11.9-41.8-29.8-119.3-41.8-175c-11.9-53.7-25.8-115.3-31.8-133.2c-9.9-33.8,19.9-35.8,449.4-35.8c429.5,0,459.4-2,449.4-33.8c-6-19.9-198.9-920.7-429.5-2004.5c-230.7-1083.8-449.4-2095.9-489.2-2253c-121.3-495.2-296.3-942.6-463.3-1183.2c-121.3-177-320.2-320.2-467.3-336.1c-53.7-6-67.6,8-183,190.9c-214.8,346-375.8,469.3-614.5,469.3c-149.1,0-260.5-49.7-344-151.1c-165.1-198.9-165.1-487.2,0-674.1c149.1-169,411.6-244.6,771.6-222.7c338.1,21.9,700,159.1,1034.1,393.7c210.8,147.2,582.6,529,733.8,749.7c149.1,220.7,316.2,560.8,397.7,815.3c33.8,101.4,256.5,1097.7,493.2,2213.3l431.5,2026.3h582.7h582.6l11.9,55.7c21.9,97.5,69.6,292.3,79.5,328.1c9.9,31.8-25.8,33.8-576.7,33.8c-324.1,0-588.6,8-588.6,15.9c0,47.7,188.9,878.9,240.6,1067.9c208.8,739.8,493.2,1153.4,811.3,1187.2c65.6,6,71.6,2,181-179c222.7-367.9,369.9-481.2,614.5-481.2c157.1,0,268.5,45.7,346,139.2c220.7,260.5,145.2,664.2-151.1,811.3C6024.4,4747.9,5706.3,4777.7,5419.9,4724z" /><path
       style="fill:#ffffff;fill-opacity:0.86000001"
       id="path837"
       d="M9220.1,2178.7c-63.6-15.9-179-63.6-258.5-103.4c-294.3-153.1-741.7-680.1-1165.3-1374.1c-113.3-186.9-212.8-334.1-220.7-326.1c-6,8-31.8,107.4-55.7,222.7c-47.7,214.8-200.8,795.4-254.5,954.5c-83.5,244.6-216.7,435.5-371.9,527c-117.3,67.6-334.1,115.3-479.2,103.4c-139.2-11.9-350-75.6-737.8-226.7L5398,1848.6l-33.8-127.3c-17.9-69.6-39.8-139.2-45.8-155.1c-7.9-23.9,27.9-19.9,185,21.9c264.5,69.6,525,71.6,676.1,6c198.9-87.5,300.3-250.6,429.5-688c105.4-354,332.1-1211,332.1-1252.8c0-129.3-586.6-934.6-908.8-1248.8l-97.4-93.5l-202.8,69.6c-246.6,85.5-375.8,101.4-531,69.6c-163.1-33.8-248.6-81.5-344-188.9c-103.4-117.3-129.3-198.9-119.3-367.9c9.9-183,83.5-304.2,232.6-381.8c188.9-99.4,487.2-69.6,729.8,73.6c296.3,173,700,646.3,1141.4,1336.3c115.3,177,210.8,320.1,214.8,316.2c4-4,63.6-230.7,133.2-503.1c177-696,248.6-888.9,385.8-1046c143.2-161.1,411.6-242.6,737.8-224.7c254.5,13.9,467.3,65.6,797.4,192.9l250.6,97.4l33.8,125.3c19.9,67.6,37.8,137.2,43.7,157.1c8,29.8,2,29.8-75.6,6c-280.4-83.5-690-87.5-861-7.9c-137.2,63.6-290.3,220.7-363.9,377.8c-69.6,145.2-214.8,612.5-363.9,1177.2L7673-28.6l45.7,89.5c77.6,143.2,377.8,592.6,529,785.5c75.6,99.4,204.8,248.6,286.3,334.1l147.2,153.1l208.8-61.7c550.8-161.1,958.5,2,1006.2,403.7c15.9,141.2-17.9,260.5-105.4,356C9651.6,2184.6,9452.7,2236.3,9220.1,2178.7z" /></g></g>
</svg>
